<svg xmlns="http://www.w3.org/2000/svg" viewBox="0 0 377.17 70.9"><defs><style>.a,.b{fill:#fff;}.a{fill-rule:evenodd;}</style></defs><path class="a" d="M0,.47c9.14,7.19,11.6,6.3,22.27,17.78C33.49,30.33,37.91,43.09,52.75,54.39c-6.13-1.37-8.08-4.91-11.81-7.12C38.23,55.71,29.62,67,24.08,69.5c5.25,3.71,27-4.85,33.16-9,6.59-4.4,13.35-1.75,21-7.25C92.39,43.14,84.4,33.16,99.58,31.89c-7.27-6.65-9.46-5.69-12.06-7.8C97,11.45,108.93,7.77,119.69.53,101.14-1,81.12,3,70.38,12.86c-12.73,11.68-3.32,18.85-.31,19.4,7.13,1.28,11.56-11.15,23.17-2.38C86,36.29,88.92,34.1,85,42,75,62.46,65.14,33.54,57.8,23.29,45.12,5.59,22.81-2,0,.47Z"/><path class="b" d="M143.25,70V65.21C128.7,64,120.06,57.15,120.06,46.06s8.64-17.86,23.19-19.15V22h10.22v4.9C168,28.2,176.66,35,176.66,46.06S168,64,153.47,65.21V70Zm0-14v-20c-8.28,1-12.68,4.61-12.68,10S135,55.06,143.25,56.07Zm10.22-20v20c8.28-.94,12.75-4.54,12.75-10S161.75,37.06,153.47,36.05Z"/><path class="b" d="M183.92,70V22h22.47c10.44,0,16.13,7.06,16.13,15.48S216.76,53,206.39,53H194.15V70Zm28.16-32.55c0-4-3-6.48-7.06-6.48H194.15V44H205C209.05,44,212.08,41.45,212.08,37.49Z"/><path class="b" d="M228.85,70V22h10.23V53l22.25-31h10.51V70H261.61V37.85L238.72,70Z"/><path class="b" d="M281.34,70V22h10.22V53l22.25-31h10.52V70H314.1V37.85L291.2,70Z"/><path class="b" d="M331.52,46.06c0-14.76,11.16-24.84,25.56-24.84,10.59,0,16.71,5.76,20.09,11.73l-8.78,4.33a13,13,0,0,0-11.31-7C348.37,30.29,342,37,342,46.06s6.34,15.77,15.05,15.77a12.89,12.89,0,0,0,11.31-7l8.78,4.25c-3.45,6-9.5,11.81-20.09,11.81C342.68,70.9,331.52,60.82,331.52,46.06Z"/></svg>